# xmcd
#
# Track frame offsets: 
#        150
#        3455
#        19765
#        35580
#        50640
#        72550
#        87410
#        110007
#        131117
#        148315
#        158700
#        181755
#        200745
#        215980
#
# Disc length: 3154 seconds
#
# Revision: 2
# Processed by: cddbd v1.5.2PL0 Copyright (c) Steve Scherf et al.
# Submitted via: ExactAudioCopy v0.95b3
#
DISCID=dc0c500e
DTITLE=John Legend - Get Lifted
DYEAR=2004
DGENRE=Soul
TTITLE0=Prelude
TTITLE1=Let's Get Lifted
TTITLE2=Used To Love U
TTITLE3=Alright
TTITLE4=She Don't Have To Know
TTITLE5=Number One (ft Kanye West)
TTITLE6=I Can Change (ft Snoop Dogg)
TTITLE7=Ordinary People
TTITLE8=Stay With You
TTITLE9=Let's Get Lifted Again
TTITLE10=So High
TTITLE11=Refuge (When It's Cold Outside)
TTITLE12=It Don't Have To Change (ft The Stephens Family)
TTITLE13=Live It Up (ft Miri Ben-Ari)
EXTD=
EXTT0=
EXTT1=
EXTT2=
EXTT3=
EXTT4=
EXTT5=
EXTT6=
EXTT7=
EXTT8=
EXTT9=
EXTT10=
EXTT11=
EXTT12=
EXTT13=
PLAYORDER=
